<svg width="57" height="75" fill="none" xmlns="http://www.w3.org/2000/svg"><path d="M40.3 6.26c-1.87 5.2-4.22 13.14-3.42 16.35l-12.04-6.39c.3-1.33 3.73-8.09 13.54-12.09 1.24-.5 2.4.82 1.93 2.13Z" fill="#fff"/><path d="M27.31 5.2c0 4.83.44 12.04 2.17 14.59l-12.75-2.83c-.17-1.19.73-7.66 8.16-13.18 1.03-.76 2.42.1 2.42 1.41Z" fill="#fff"/><path d="M28.24 8.02c-2.53-1.61-7.6-.55-10.95 2.01M27.85 11.13c-3.36-.87-9.02.42-11.42 2.68M29.87 7.16c2.8-1.09 9.5-.45 11.03 3.48M27.86 10.03c3.74-.17 8.9.95 10.87 3.9" stroke="#2C134D" stroke-width="1.61"/><path d="M26.38 44.93c-14.4 2.51-27.39-8.52-18.9-20.41 4.3-6.04 10.37-10.55 17.94-10.55 22.24 0 21.34 10.44 22.24 20.03l3.21 40.42h-29.3l4.8-29.49Z" fill="#FCC17C"/><mask id="a" maskUnits="userSpaceOnUse" x="17.84" y="45.85" width="19" height="15" fill="#000"><path fill="#fff" d="M17.84 45.85h19v15h-19z"/><path fill-rule="evenodd" clip-rule="evenodd" d="M22.82 48.96a1.45 1.45 0 0 0-1.82 2l1.23 2.46L21 55.88a1.45 1.45 0 0 0 1.82 2l4.5-1.72 4.49 1.73a1.45 1.45 0 0 0 1.82-2l-1.23-2.47 1.23-2.46a1.45 1.45 0 0 0-1.82-2l-4.5 1.72-4.5-1.72Z"/></mask><path fill-rule="evenodd" clip-rule="evenodd" d="M22.82 48.96a1.45 1.45 0 0 0-1.82 2l1.23 2.46L21 55.88a1.45 1.45 0 0 0 1.82 2l4.5-1.72 4.49 1.73a1.45 1.45 0 0 0 1.82-2l-1.23-2.47 1.23-2.46a1.45 1.45 0 0 0-1.82-2l-4.5 1.72-4.5-1.72Z" fill="#fff"/><path d="m21 50.96 2.16-1.08L21 50.96Zm1.82-2-.87 2.25.87-2.25Zm-.6 4.46 2.17 1.08.54-1.08-.54-1.08-2.16 1.08ZM21 55.88l2.16 1.08L21 55.88Zm1.82 2 .87 2.26-.87-2.25Zm4.5-1.72.86-2.25-.87-.34-.86.34.86 2.25Zm4.49 1.73-.87 2.25.87-2.25Zm1.82-2-2.16 1.07 2.16-1.08Zm-1.23-2.47-2.16-1.08-.54 1.08.54 1.08 2.16-1.08Zm1.23-2.46-2.16-1.08 2.16 1.08Zm-1.82-2 .86 2.25-.86-2.25Zm-4.5 1.72-.86 2.26.86.33.87-.33-.87-2.26Zm-4.15-.8a.96.96 0 0 1-1.2 1.33l1.73-4.5a3.87 3.87 0 0 0-4.85 5.33l4.32-2.16Zm1.23 2.46-1.23-2.46-4.32 2.16 1.23 2.46 4.32-2.16Zm-1.23 4.62 1.23-2.46-4.32-2.16-1.23 2.46 4.32 2.16Zm-1.2-1.32a.96.96 0 0 1 1.2 1.32l-4.32-2.16a3.87 3.87 0 0 0 4.85 5.34l-1.74-4.5Zm4.49-1.73-4.5 1.73 1.74 4.5 4.49-1.73-1.73-4.5Zm0 4.5 4.5 1.73 1.72-4.5-4.49-1.73-1.73 4.5Zm4.5 1.73a3.87 3.87 0 0 0 4.84-5.34l-4.32 2.16a.96.96 0 0 1 1.2-1.32l-1.73 4.5Zm4.84-5.34-1.23-2.46-4.32 2.16 1.23 2.46 4.32-2.16Zm-1.23-.3 1.23-2.46-4.32-2.16-1.23 2.46 4.32 2.16Zm1.23-2.46a3.87 3.87 0 0 0-4.85-5.34l1.73 4.5a.96.96 0 0 1-1.2-1.32l4.32 2.16Zm-4.85-5.34-4.5 1.73 1.74 4.5 4.5-1.72-1.74-4.5Zm-8.99 4.5 4.5 1.74 1.73-4.5-4.5-1.74-1.73 4.5Z" fill="#2C134D" mask="url(#a)"/><circle cx="21.29" cy="26.51" r="5.92" fill="#2C134D"/><circle cx="20.04" cy="27.14" r="2.81" fill="#fff"/><path d="M54 58.58c1.6.86 1.87 2.61.61 3.91l-4.93 5.1-1.9-12.39L54 58.58Z" fill="#FCC17C"/><path d="M52.78 48.38c1.6.86 1.86 2.62.6 3.91l-4.92 5.1L46.55 45l6.23 3.38Z" fill="#FCC17C"/><path d="M50.86 39.26c1.6.86 1.86 2.61.6 3.91l-4.92 5.1-1.91-12.4 6.23 3.39Z" fill="#FCC17C"/><path d="M49.9 31.1c1.6.86 1.86 2.61.6 3.91l-4.93 5.1-1.9-12.4 6.23 3.39Z" fill="#FCC17C"/><path d="M47.61 22.92c1.74.49 2.39 2.14 1.45 3.68l-3.7 6.06-4.57-11.68 6.82 1.94Z" fill="#FCC17C"/><path d="M42.98 17.55c1.8-.23 3.04 1.04 2.77 2.83l-1.04 7.02-8.77-8.97 7.04-.88Z" fill="#FCC17C"/><path d="M37.78 15.2c1.58-.88 3.2-.17 3.62 1.59l1.65 6.9-11.47-5.05 6.2-3.45Z" fill="#FCC17C"/></svg>