<svg width="50" height="50" fill="none" xmlns="http://www.w3.org/2000/svg"><mask id="a" style="mask-type:alpha" maskUnits="userSpaceOnUse" x="0" y="0" width="50" height="50"><path fill="#D9D9D9" d="M0 0h50v50H0z"/></mask><g mask="url(#a)" fill="#fff"><path fill-rule="evenodd" clip-rule="evenodd" d="m8.5 37.35.7.7c5.66 5.66 8.48 8.49 11.66 9.76a16.66 16.66 0 0 0 12.37 0c3.18-1.27 6-4.1 11.66-9.76l.7-.7H8.5Z"/><path d="m10.98 11.08 12.26-5.41 6.12 13.84-12.27 5.41L11 11.08Z"/><path d="M7.96 9.58a1.3 1.3 0 0 1 .66-1.71l13.84-6.11a1.3 1.3 0 0 1 1.71.66l.53 1.18c.29.66-.01 1.43-.66 1.72l-13.85 6.1a1.3 1.3 0 0 1-1.7-.66l-.53-1.18ZM15.64 26.98a1.3 1.3 0 0 1 .66-1.71l13.85-6.11a1.3 1.3 0 0 1 1.7.66l.53 1.18c.29.66 0 1.43-.66 1.71l-13.84 6.12a1.3 1.3 0 0 1-1.72-.67l-.52-1.18ZM20.8 11.85l16.31-8.4c1.1-.57 2.28-1 3.49-1.27 4.06-.9 6.42 4.45 3.02 6.85-1.02.71-2.12 1.3-3.28 1.72l-17.2 6.39-8.2 2.55c-2.19.67-3.52-2.34-1.55-3.5l7.41-4.34Z"/><path d="m43.57 8.52-.34 2.32c-.15 1-1.3 1.51-2.15.94l-1.94-1.3 4.43-1.96ZM40.93 2.55l-1.94-1.31c-.85-.57-2-.06-2.15.94L36.5 4.5l4.43-1.95ZM4.54 23.24l5.06 6.3L2 26.8l2.54-3.56ZM46.66 23.35l-9.39 6.07 11.18-.29-1.8-5.78Z"/></g></svg>