<svg width="50" height="50" fill="none" xmlns="http://www.w3.org/2000/svg"><mask id="a" style="mask-type:alpha" maskUnits="userSpaceOnUse" x="0" y="0" width="50" height="50"><path fill="#D9D9D9" d="M0 0h50v50H0z"/></mask><g mask="url(#a)"><path fill-rule="evenodd" clip-rule="evenodd" d="M1 33.26c.11-9.54 4.57-14.2 10.33-19.23a5.47 5.47 0 0 1-1.46-2.34c-.32-1.02-.23-1.8-.23-1.8l9.35 4.45C9.63 9.24 13.62 0 13.62 0c.75 6.2 9.98 10.57 17.27 14.03a73.7 73.7 0 0 1 6.26 3.19c1.38.84 2.32 1.63 2.56 2.39C41.1 23.9 48 25.35 48 25.35c0 5.74-2.91 8.85-2.91 8.85l-.93-2.95-2.83 2.95s-.83-.86-2.03-1.8a16.2 16.2 0 0 0-2.45-1.63 8.06 8.06 0 0 0-1.58-.64 5.7 5.7 0 0 0-1.42-.2c-.7 0-1.36.1-2.12.23-.67.11-1.4.23-2.29.3-.79.05-1.7.05-2.77-.05l-7.6-.36 1.76-1.84c-9.5 2.2-9.5 20.2 10.91 16.33-8.14 6.77-16.91 3.66-20.58-.97.48 2.9 3.35 5.32 5.09 6.43C7.4 49.24 1 41.59 1 33.26Zm29.76-14.71c1.13.02 3.86.27 5.75 1.11l-.02.02a3.68 3.68 0 0 0-1.2 2.01c-.71-1.08-3.2-2.6-4.53-3.14Z" fill="#fff"/></g></svg>