<svg width="50" height="50" fill="none" xmlns="http://www.w3.org/2000/svg"><mask id="a" style="mask-type:alpha" maskUnits="userSpaceOnUse" x="0" y="0" width="50" height="50"><path fill="#D9D9D9" d="M0 0h50v50H0z"/></mask><g mask="url(#a)"><path fill-rule="evenodd" clip-rule="evenodd" d="M38.4 10.2H12v12.4a13.2 13.2 0 1 0 26.4 0V10.2ZM25.68 14.5a.58.58 0 0 0-1 0l-1.82 3.18a.57.57 0 0 1-.39.28l-3.63.72c-.44.1-.6.61-.3.94l2.5 2.69c.11.12.16.28.14.44l-.42 3.64c-.05.43.4.75.8.57l3.38-1.51a.58.58 0 0 1 .48 0l3.37 1.51c.4.18.86-.14.8-.57l-.41-3.64a.56.56 0 0 1 .14-.44l2.51-2.7a.56.56 0 0 0-.3-.93l-3.64-.72a.57.57 0 0 1-.39-.28L25.7 14.5Z" fill="#fff"/><rect x="9.6" y="3" width="31.2" height="7.2" rx="1.47" fill="#fff"/><path fill="#fff" d="M22.4 32.6h4.8v12h-4.8z"/><path d="M16.8 8.6H7.03a2.2 2.2 0 0 0-2.1 2.89l2.74 8.46a4.41 4.41 0 0 0 4.2 3.05h4.93M33.6 8.6h9.76a2.2 2.2 0 0 1 2.1 2.89l-2.73 8.46a4.41 4.41 0 0 1-4.2 3.05H33.6" stroke="#fff" stroke-width="2.94" stroke-linecap="round"/><path d="M33.6 47c0-2.12-.93-4.16-2.58-5.66A9.27 9.27 0 0 0 24.8 39c-2.34 0-4.58.84-6.23 2.34A7.65 7.65 0 0 0 16 47h17.6Z" fill="#fff"/></g></svg>